<svg xmlns="http://www.w3.org/2000/svg" xmlns:xlink="http://www.w3.org/1999/xlink" width="24" height="24" viewBox="0 0 24 24" fill="none"><g opacity="1" transform="translate(0 -1.1368683772161603e-13)  rotate(0 12 12)"><path id="减去顶层" fill-rule="evenodd" style="fill:#FFFFFF" transform="translate(3.5 2.6949998092650276)  rotate(0 8.5 8.5)" opacity="1" d="M11.9955 2.55L12.75 2.55L12.75 1.13925C15.2896 2.61021 17 5.35757 17 8.5C17 13.19 13.19 17 8.5 17L8.5 15.4C12.31 15.4 15.4 12.31 15.4 8.5C15.4 5.96549 14.0326 3.74959 11.9955 2.55Z M8.5 1.6L8.5 -1.11022e-16C3.81 0 0 3.81 0 8.5C0 10.85 0.95 12.97 2.49 14.51C3.01409 15.0341 3.60536 15.4899 4.25 15.8631L4.25 14.45L5.00054 14.45C4.49591 14.1525 4.03238 13.7924 3.62 13.38C2.37 12.13 1.6 10.41 1.6 8.5C1.6 4.69 4.69 1.6 8.5 1.6Z " /><path id="三角形 1" fill-rule="evenodd" style="fill:#FFFFFF" transform="translate(12.28 2.23)  rotate(135 3.5 1.9084633898212628)" opacity="1" d="M5.86,0L1.14,0C0.94,0 0.76,0.12 0.68,0.3C0.6,0.48 0.63,0.69 0.77,0.84L3.13,3.42C3.22,3.52 3.36,3.58 3.5,3.58C3.64,3.58 3.78,3.52 3.87,3.42L6.23,0.84C6.37,0.69 6.4,0.48 6.32,0.3C6.24,0.12 6.06,0 5.86,0Z " /><path id="三角形 1" fill-rule="evenodd" style="fill:#FFFFFF" transform="translate(5.32 16.59)  rotate(-45 3.5 1.9084633898212626)" opacity="1" d="M5.86,0L1.14,0C0.94,0 0.76,0.12 0.68,0.3C0.6,0.48 0.63,0.69 0.77,0.84L3.13,3.42C3.22,3.52 3.36,3.58 3.5,3.58C3.64,3.58 3.78,3.52 3.87,3.42L6.23,0.84C6.37,0.69 6.4,0.48 6.32,0.3C6.24,0.12 6.06,0 5.86,0Z " /></g></svg>