<svg xmlns="http://www.w3.org/2000/svg" xmlns:xlink="http://www.w3.org/1999/xlink" width="24.804948750277163" height="23.99987205378966" viewBox="0 0 24.804948750277163 23.99987205378966" fill="none"><g opacity="1" transform="translate(0.4010879834654588 0)  rotate(0 11.99993602689483 11.99993602689483)"><path id="路径 1" fill-rule="evenodd" style="fill:#FFFFFF" transform="translate(4.309750867522325 2.3150009128962665)  rotate(0 7.691100177719101 9.689174559937424)" opacity="0.2" d="M8.86,0.57L8.86,8.14C8.86,9 7.55,9 7.55,8.14L7.55,2.12C7.55,1.33 6.25,1.36 6.25,2.1L6.25,10.76C6.21,12.44 4.46,12.82 3.55,11.78C2.83,10.95 2.04,9.66 1.25,8.9C0.5,8.18 -0.28,8.68 0.1,9.35C1.87,12.41 4.65,18.99 7.85,19.29C10.82,19.57 12.47,19.15 13.45,18.08C14.76,16.65 15.32,14.48 15.38,10.35L15.38,5.2C15.38,4.44 14.08,4.44 14.08,5.2L14.08,10.38L14.08,10.38C14.08,11.24 12.77,11.24 12.77,10.38L12.77,2.28C12.77,1.52 11.47,1.52 11.47,2.28L11.47,8.7C11.47,9.56 10.16,9.56 10.16,8.7L10.16,0.57C10.16,-0.19 8.86,-0.19 8.86,0.57Z " /><path id="分组 1" fill-rule="evenodd" style="fill:#FFFFFF" transform="translate(3 1.0171511474050021)  rotate(0 9 10.98284885259483)" opacity="1" d="M10.1698 1.86785L10.1698 9.43785C10.1698 10.2978 8.85975 10.2978 8.85975 9.43785L8.85975 3.41785C8.85975 2.62785 7.55975 2.65785 7.55975 3.39785L7.55975 12.0578C7.51975 13.7378 5.76975 14.1178 4.85975 13.0778C4.13975 12.2478 3.34975 10.9578 2.55975 10.1978C1.80975 9.47785 1.02975 9.97785 1.40975 10.6479C3.17975 13.7078 5.95975 20.2878 9.15975 20.5879C12.1298 20.8678 13.7798 20.4478 14.7598 19.3778C16.0698 17.9478 16.6298 15.7778 16.6898 11.6479L16.6898 6.49785C16.6898 5.73785 15.3898 5.73785 15.3898 6.49785L15.3898 11.6778L15.3898 11.6778C15.3898 12.5378 14.0798 12.5378 14.0798 11.6778L14.0798 3.57785C14.0798 2.81785 12.7798 2.81785 12.7798 3.57785L12.7798 9.99785C12.7798 10.8579 11.4698 10.8579 11.4698 9.99785L11.4698 1.86785C11.4698 1.10785 10.1698 1.10785 10.1698 1.86785Z M15.39 3.58C15.39 2.2 14 1.41 12.78 1.8C12.69 -0.5 9.17 -0.63 8.88 1.63L8.88 1.63C7.62 1.22 6.25 2.04 6.25 3.4L6.25 11.72C6.25 12.5 6.14 12.59 5.53 11.9C4.89 11.17 4.04 9.81 3.47 9.26C1.58 7.45 -0.83 9.37 0.28 11.3C2.3 14.79 5.06 21.52 9.04 21.89C12.15 22.18 14.18 21.61 15.56 20.49C17.93 18.56 18 12.75 18 11.74L18 6.5C18 5.12 16.61 4.33 15.39 4.72L15.39 3.58Z " /></g></svg>