<svg xmlns="http://www.w3.org/2000/svg" xmlns:xlink="http://www.w3.org/1999/xlink" width="24" height="24" viewBox="0 0 24 24" fill="none"><g opacity="1" transform="translate(0 0)  rotate(0 12 12)"><path id="减去顶层" fill-rule="evenodd" style="fill:#FFFFFF" transform="translate(3 3.1616452352209308)  rotate(0 9 9)" opacity="0.285" d="M17 18L1 18C0.45 18 0 17.55 0 17C0.00155522 17.5487 0.450953 17.9971 1 17.9971L14.14 17.9971L14.14 4.85714C14.14 4.30714 13.69 3.85714 13.14 3.85714L0 3.85714L0 1C0 0.45 0.45 0 1 0L17 0C17.55 0 18 0.45 18 1L18 17C18 17.55 17.55 18 17 18Z " /><path id="矩形 2" fill-rule="evenodd" style="fill:#FFFFFF" transform="translate(3 9.590216663792361)  rotate(0 5.785714285714285 5.785714285714285)" opacity="1" d="M1,11.57L10.57,11.57C11.12,11.57 11.57,11.12 11.57,10.57L11.57,1C11.57,0.45 11.12,0 10.57,0L1,0C0.45,0 0,0.45 0,1L0,10.57C0,11.12 0.45,11.57 1,11.57Z " /></g></svg>