<svg xmlns="http://www.w3.org/2000/svg" xmlns:xlink="http://www.w3.org/1999/xlink" width="24" height="19.199999999999818" viewBox="0 0 24 19.199999999999818" fill="none"><g opacity="1" transform="translate(0 0)  rotate(0 12 9.600000000000001)"><path id="矩形 2" fill-rule="evenodd" style="fill:#000000" transform="translate(0 0)  rotate(0 12 9.600000000000001)" opacity="0.6" d="M0,19.2L24,19.2L24,0L12,0C5.37,0 0,5.37 0,12L0,19.2Z " /><path id="分组 1" fill-rule="evenodd" style="fill:#FFFFFF" transform="translate(8.4 3.600000000000001)  rotate(0 6 6.000000000000003)" opacity="1" d="M0 7.72L0 12L4.28 12L10.05 6.23L5.77 1.95L0 7.72Z M1.5 8.405L1.5 10.505L3.6 10.505L7.88 6.225L5.78 4.125L1.5 8.405Z M6.45 1.27L10.73 5.55L12 4.28L7.8 0L6.45 1.27Z " /></g></svg>