<svg xmlns="http://www.w3.org/2000/svg" xmlns:xlink="http://www.w3.org/1999/xlink" width="24" height="24" viewBox="0 0 24 24" fill="none"><defs><rect id="path_0" x="0" y="0" width="24" height="24" /></defs><g opacity="1" transform="translate(0 0)  rotate(0 12 12)"><mask id="bg-mask-0" fill="white"><use xlink:href="#path_0"></use></mask><g mask="url(#bg-mask-0)" ><path id="矩形 5" fill-rule="evenodd" style="fill:#FFFFFF" transform="translate(3 7.142092286418345)  rotate(0 4.50066924938409 7.71313842962752)" opacity="1" d="M0,10.28L9,15.43L9,5.14L0,0L0,10.28Z " /><g opacity="0.3" transform="translate(2.2028472900463165 1.1999999766799192)  rotate(0 9.800062115496159 11.080000011660012)"><path id="路径 1 (轮廓)" fill-rule="evenodd" style="fill:#FFFFFF" transform="translate(0 0)  rotate(0 9.794999999999998 11.080000011660012)" opacity="1" d="M9.58 22.13C9.52 22.12 9.45 22.09 9.39 22.05L0.4 16.91C0.34 16.88 0.29 16.84 0.24 16.79C0.19 16.74 0.14 16.68 0.11 16.62C0.07 16.56 0.05 16.5 0.03 16.43C0.01 16.36 0 16.29 0 16.22L0 5.94C0 5.87 0.01 5.8 0.03 5.73C0.05 5.66 0.07 5.6 0.11 5.54C0.14 5.48 0.19 5.42 0.24 5.37C0.29 5.32 0.34 5.28 0.4 5.25L9.39 0.11C9.45 0.07 9.52 0.04 9.58 0.03C9.65 0.01 9.72 0 9.79 0C9.86 0 9.93 0.01 10 0.03C10.06 0.04 10.13 0.07 10.19 0.11L19.19 5.25C19.25 5.28 19.3 5.32 19.35 5.37C19.4 5.42 19.45 5.48 19.48 5.54C19.52 5.6 19.54 5.66 19.56 5.73C19.58 5.8 19.59 5.87 19.59 5.94L19.59 16.22C19.59 16.29 19.58 16.36 19.56 16.43C19.54 16.5 19.52 16.56 19.48 16.62C19.45 16.68 19.4 16.74 19.35 16.79C19.3 16.84 19.25 16.88 19.19 16.91L10.19 22.05C10.13 22.09 10.06 22.12 10 22.13C9.93 22.15 9.86 22.16 9.79 22.16C9.72 22.16 9.65 22.15 9.58 22.13ZM17.99 15.76L9.79 20.44L1.6 15.76L1.6 6.4L9.79 1.72L17.99 6.4L17.99 15.76Z" /><path id="路径 3 (轮廓)" fill-rule="evenodd" style="fill:#FFFFFF" transform="translate(0.010000000000000037 5.139176302445776)  rotate(0 9.795062115496158 3.370003987119648)" opacity="1" d="M0.03,1.01C0.04,1.06 0.06,1.11 0.08,1.16C0.11,1.2 0.14,1.25 0.17,1.29C0.2,1.33 0.24,1.37 0.28,1.4C0.31,1.44 0.36,1.47 0.4,1.49L9.39,6.63C9.45,6.67 9.52,6.7 9.58,6.71C9.65,6.73 9.72,6.74 9.79,6.74C9.86,6.74 9.93,6.73 10,6.71C10.06,6.7 10.13,6.67 10.19,6.63L19.19,1.49C19.28,1.44 19.36,1.37 19.42,1.29C19.49,1.21 19.53,1.11 19.56,1.01C19.59,0.91 19.6,0.8 19.58,0.7C19.57,0.59 19.54,0.5 19.48,0.4C19.46,0.36 19.43,0.32 19.39,0.28C19.36,0.24 19.32,0.2 19.28,0.17C19.24,0.14 19.19,0.11 19.15,0.08C19.1,0.06 19.05,0.04 19,0.03C18.95,0.01 18.9,0.01 18.85,0C18.79,0 18.74,0 18.69,0.01C18.64,0.01 18.59,0.02 18.54,0.04C18.49,0.06 18.44,0.08 18.39,0.11L9.79,5.02L1.2,0.11C1.15,0.08 1.1,0.06 1.05,0.04C1,0.02 0.95,0.01 0.9,0.01C0.85,0 0.8,0 0.74,0C0.69,0.01 0.64,0.01 0.59,0.03C0.54,0.04 0.49,0.06 0.44,0.08C0.4,0.11 0.35,0.14 0.31,0.17C0.27,0.2 0.23,0.24 0.2,0.28C0.16,0.31 0.13,0.36 0.11,0.4C0.08,0.45 0.06,0.5 0.04,0.55C0.02,0.6 0.01,0.65 0.01,0.7C0,0.75 0,0.8 0,0.86C0.01,0.91 0.01,0.96 0.03,1.01Z " /><path id="路径 6 (轮廓)" fill-rule="evenodd" style="fill:#FFFFFF" transform="translate(9.00670937747351 10.278368462910294)  rotate(0 0.8 5.94)" opacity="1" d="M0.13,11.52C0.16,11.57 0.2,11.61 0.23,11.65C0.27,11.68 0.31,11.72 0.36,11.75C0.4,11.77 0.45,11.8 0.49,11.82C0.54,11.84 0.59,11.85 0.64,11.86C0.7,11.87 0.75,11.88 0.8,11.88C0.85,11.88 0.9,11.87 0.96,11.86C1.01,11.85 1.06,11.84 1.11,11.82C1.15,11.8 1.2,11.77 1.24,11.75C1.29,11.72 1.33,11.68 1.37,11.65C1.4,11.61 1.44,11.57 1.47,11.52C1.49,11.48 1.52,11.43 1.54,11.39C1.56,11.34 1.57,11.29 1.58,11.24C1.59,11.18 1.6,11.13 1.6,11.08L1.6,0.8C1.6,0.75 1.59,0.7 1.58,0.64C1.57,0.59 1.56,0.54 1.54,0.49C1.52,0.45 1.49,0.4 1.47,0.36C1.44,0.31 1.4,0.27 1.37,0.23C1.33,0.2 1.29,0.16 1.24,0.13C1.2,0.11 1.15,0.08 1.11,0.06C1.06,0.04 1.01,0.03 0.96,0.02C0.9,0.01 0.85,0 0.8,0C0.75,0 0.7,0.01 0.64,0.02C0.59,0.03 0.54,0.04 0.49,0.06C0.45,0.08 0.4,0.11 0.36,0.13C0.31,0.16 0.27,0.2 0.23,0.23C0.2,0.27 0.16,0.31 0.13,0.36C0.11,0.4 0.08,0.45 0.06,0.49C0.04,0.54 0.03,0.59 0.02,0.64C0.01,0.7 0,0.75 0,0.8L0,11.08C0,11.13 0.01,11.18 0.02,11.24C0.03,11.29 0.04,11.34 0.06,11.39C0.08,11.43 0.11,11.48 0.13,11.52Z " /></g></g></g></svg>