<svg xmlns="http://www.w3.org/2000/svg" xmlns:xlink="http://www.w3.org/1999/xlink" width="24" height="24" viewBox="0 0 24 24" fill="none"><g opacity="1" transform="translate(0 0)  rotate(0 12 12)"><path id="路径 1 (轮廓)" fill-rule="evenodd" style="fill:#FFFFFF" transform="translate(2.206427615357825 0.9216315370890698)  rotate(0 9.794999999999998 11.080000011660012)" opacity="0.3" d="M19.35 5.37C19.3 5.32 19.25 5.28 19.19 5.25L10.19 0.11C10.13 0.07 10.06 0.04 10 0.03C9.93 0.01 9.86 0 9.79 0C9.72 0 9.65 0.01 9.58 0.03C9.52 0.04 9.45 0.07 9.39 0.11L0.4 5.25C0.34 5.28 0.29 5.32 0.24 5.37C0.19 5.42 0.14 5.48 0.11 5.54C0.07 5.6 0.05 5.66 0.03 5.73C0.01 5.8 0 5.87 0 5.94L0 16.22C0 16.29 0.01 16.36 0.03 16.43C0.05 16.5 0.07 16.56 0.11 16.62C0.14 16.68 0.19 16.74 0.24 16.79C0.29 16.84 0.34 16.88 0.4 16.91L9.39 22.05C9.45 22.09 9.52 22.12 9.58 22.13C9.65 22.15 9.72 22.16 9.79 22.16C9.86 22.16 9.93 22.15 10 22.13C10.06 22.12 10.13 22.09 10.19 22.05L19.19 16.91C19.25 16.88 19.3 16.84 19.35 16.79C19.4 16.74 19.45 16.68 19.48 16.62C19.52 16.56 19.54 16.5 19.56 16.43C19.58 16.36 19.59 16.29 19.59 16.22L19.59 5.94C19.59 5.87 19.58 5.8 19.56 5.73C19.54 5.66 19.52 5.6 19.48 5.54C19.45 5.48 19.4 5.42 19.35 5.37ZM17.99 15.76L9.79 20.44L1.6 15.76L1.6 6.4L9.79 1.72L17.99 6.4L17.99 15.76Z" /><path id="圆形 2" fill-rule="evenodd" style="fill:#FFFFFF" transform="translate(9 9.000000000000455)  rotate(0 3 2.999999999999659)" opacity="1" d="M3,0C1.34,0 0,1.34 0,3C0,4.66 1.34,6 3,6C4.66,6 6,4.66 6,3C6,1.34 4.66,0 3,0Z " /></g></svg>