<svg xmlns="http://www.w3.org/2000/svg" xmlns:xlink="http://www.w3.org/1999/xlink" width="20" height="20" viewBox="0 0 20 20" fill="none"><defs><rect id="path_0" x="0" y="0" width="20" height="20" /></defs><g opacity="1" transform="translate(2.2737367544323206e-13 0)  rotate(0 10 10)"><mask id="bg-mask-0" fill="white"><use xlink:href="#path_0"></use></mask><g mask="url(#bg-mask-0)" ><path id="路径 1" fill-rule="evenodd" style="fill:#FFFFFF" transform="translate(0 0)  rotate(0 10 10)" opacity="0.01" d="M20,20L20,0L0,0L0,20L20,20Z " /><path id="三角形 1" fill-rule="evenodd" style="fill:#FFFFFF" transform="translate(1.12 1.41)  rotate(-30 8 7.390083445627208)" opacity="0.2" d="M1.22,14.36L7.84,12.07C7.94,12.03 8.06,12.03 8.16,12.07L14.78,14.36C14.98,14.43 15.2,14.37 15.33,14.22C15.47,14.06 15.49,13.83 15.39,13.65L8.44,0.81C8.35,0.65 8.18,0.55 8,0.55C7.82,0.55 7.65,0.65 7.56,0.81L0.61,13.65C0.51,13.83 0.53,14.06 0.67,14.22C0.8,14.37 1.02,14.43 1.22,14.36Z " /><path id="三角形 1 (轮廓)" fill-rule="evenodd" style="fill:#FFFFFF" transform="translate(1.7072339753967753 1.949353313380925)  rotate(-30 7.4525000000000015 6.919551396420216)" opacity="1" d="M14.33 12.15L14.38 12.24L14.84 13.1C14.94 13.28 14.92 13.51 14.78 13.67C14.65 13.82 14.43 13.88 14.23 13.81L13.31 13.49L13.22 13.46L7.61 11.52C7.51 11.48 7.39 11.48 7.29 11.52L1.69 13.46L1.59 13.49L0.67 13.81C0.47 13.88 0.25 13.82 0.12 13.67C-0.02 13.51 -0.04 13.28 0.06 13.1L0.53 12.24L0.58 12.15L6.54 1.13L6.55 1.12L7.01 0.26C7.1 0.1 7.27 0 7.45 0C7.63 0 7.8 0.1 7.89 0.26L8.36 1.12L8.36 1.13L14.33 12.15ZM8.16 10.02L12.09 11.38L7.45 2.81L2.82 11.38L6.75 10.02C6.97 9.93 7.21 9.89 7.45 9.89C7.7 9.89 7.93 9.93 8.16 10.02Z" /></g></g></svg>