<svg xmlns="http://www.w3.org/2000/svg" xmlns:xlink="http://www.w3.org/1999/xlink" width="120" height="96.1290322580644" viewBox="0 0 120 96.1290322580644" fill="none"><defs><path id="path_0"
        transform="translate(0 0) rotate(0 60 48.064516129032256)"
        d="M0,96.13L120,96.13L120,0L0,0L0,96.13Z" /><path id="path_1"
        transform="translate(0 0) rotate(0 35.106512477175905 12.660255629945222)"
        d="M3.9,25.32L66.32,25.32C68.47,25.32 70.21,23.58 70.21,21.43L70.21,0L51.5,0C50.43,0 49.56,0.87 49.56,1.95L49.56,3.1C49.56,5.25 47.82,7 45.66,7L24.34,7L24.15,6.99C22.09,6.89 20.45,5.19 20.45,3.1L20.45,1.95C20.45,0.87 19.58,0 18.5,0L0,0L0,21.43C0,23.58 1.74,25.32 3.9,25.32Z" /><path id="path_2"
        transform="translate(0 0) rotate(0 14.607425441265976 11.68594035301278)"
        d="M29.21,11.69C29.21,5.23 22.67,0 14.61,0C6.54,0 0,5.23 0,11.69C0,13.98 0.82,16.11 2.24,17.91C2.45,18.17 2.52,18.52 2.42,18.83L1.11,22.72L5.35,21.15C5.62,21.05 5.91,21.08 6.16,21.22C8.55,22.57 11.46,23.37 14.61,23.37C22.67,23.37 29.21,18.14 29.21,11.69Z" /></defs><g opacity="1" transform="translate(0 0)  rotate(0 60 48.064516129032256)"><mask id="mask-0" fill="white"><use xlink:href="#path_0"></use></mask><g mask="url(#mask-0)"></g><g mask="url(#mask-0)"><path id="椭圆形" fill-rule="evenodd" style="fill:#F6F6F8" transform="translate(16.774193548387096 78.90967741935482)  rotate(0 43.3353621424224 8.764455264759583)" opacity="0.1" d="M86.67,8.76C86.67,3.92 67.27,0 43.34,0C19.41,0 0,3.92 0,8.76C0,13.6 19.41,17.53 43.34,17.53C67.27,17.53 86.67,13.6 86.67,8.76Z " /></g><g mask="url(#mask-0)"><path id="矩形" fill-rule="evenodd" style="fill:#54617A" transform="translate(25.05161290322581 47.941935483870964)  rotate(0 35.106512477175905 8.326232501521606)" opacity="1" d="M0,16.65L70.21,16.65L56.37,0L13.85,0L0,16.65Z " /></g><g mask="url(#mask-0)"><path id="矩形" fill-rule="evenodd" style="fill:#BFC8D6" transform="translate(35.81290322580645 19.99354838709677)  rotate(0 24.34570906877662 26.293365794278753)" opacity="0.95" d="M2,52.59L46.69,52.59C47.79,52.59 48.69,51.69 48.69,50.59L48.69,2C48.69,0.9 47.79,0 46.69,0L2,0C0.9,0 0,0.9 0,2L0,50.59C0,51.69 0.9,52.59 2,52.59Z " /></g><g mask="url(#mask-0)"><path id="并集" fill-rule="evenodd" style="fill:#9DA5B0" transform="translate(42.58064516129032 25.83870967741935)  rotate(0 17.528910529519173 18.12011817812973)" opacity="1" d="M2 19.48L33.06 19.48C34.16 19.48 35.06 18.58 35.06 17.48L35.06 2C35.06 0.9 34.16 0 33.06 0L2 0C0.9 0 0 0.9 0 2L0 17.48C0 18.58 0.9 19.48 2 19.48Z M1.46 28.1787L33.6 28.1787C34.41 28.1787 35.06 27.5287 35.06 26.7187C35.06 25.9087 34.41 25.2587 33.6 25.2587L1.46 25.2587C0.65 25.2587 0 25.9087 0 26.7187C0 27.5287 0.65 28.1787 1.46 28.1787Z M33.6 36.2388L1.46 36.2388C0.65 36.2388 0 35.5888 0 34.7788C0 33.9688 0.65 33.3188 1.46 33.3188L33.6 33.3188C34.41 33.3188 35.06 33.9688 35.06 34.7788C35.06 35.5888 34.41 36.2388 33.6 36.2388Z " /></g><g mask="url(#mask-0)"><g opacity="1" transform="translate(25.05161290322581 64.61290322580643)  rotate(0 35.106512477175905 12.660255629945222)"><mask id="mask-1" fill="white"><use xlink:href="#path_1"></use></mask><g mask="url(#mask-1)"></g><g mask="url(#mask-1)"><path id="Fill 1" fill-rule="evenodd" style="fill:#838DA3" transform="translate(-4.869141813755327 -4.868167985392418)  rotate(0 39.97565429093123 17.528910529519166)" opacity="1" d="M79.95,35.06L79.95,0L0,0L0,35.06L79.95,35.06Z " /></g></g></g><g mask="url(#mask-0)"><g opacity="1" transform="translate(90.78709677419354 0.3290322580645162)  rotate(0 14.607425441265976 11.68594035301278)"><mask id="mask-2" fill="white"><use xlink:href="#path_2"></use></mask><g mask="url(#mask-2)"></g><g mask="url(#mask-2)"><path id="Fill 1" fill-rule="evenodd" style="fill:#838DA3" transform="translate(-4.86914181375532 -4.869141813755324)  rotate(0 19.4765672550213 16.555082166768106)" opacity="1" d="M38.95,33.11L38.95,0L0,0L0,33.11L38.95,33.11Z " /></g><g mask="url(#mask-2)"><path id="矩形" fill-rule="evenodd" style="fill:#FFFFFF" transform="translate(-20.450395617772372 7.790626902008522)  rotate(0 1.94765672550213 1.94765672550213)" opacity="1" d="M0,3.9L3.9,3.9L3.9,0L0,0L0,3.9Z " /></g></g></g><g mask="url(#mask-0)"><path id="矩形" fill-rule="evenodd" style="fill:#B7C0CE" transform="translate(103.63870967741937 9.232258064516131)  rotate(0 1.94765672550213 1.94765672550213)" opacity="1" d="M0,3.9L3.9,3.9L3.9,0L0,0L0,3.9Z " /></g><g mask="url(#mask-0)"><path id="椭圆形" fill-rule="evenodd" style="fill:#B7C0CE" transform="translate(109.11612903225804 9.232258064516131)  rotate(0 1.94765672550213 1.9476567255018575)" opacity="1" d="M1.95,3.9C3.02,3.9 3.9,3.02 3.9,1.95C3.9,0.87 3.02,0 1.95,0C0.87,0 0,0.87 0,1.95C0,3.02 0.87,3.9 1.95,3.9Z " /></g><g mask="url(#mask-0)"><path id="三角形" fill-rule="evenodd" style="fill:#B7C0CE" transform="translate(97.7741935483871 9.232258064516131)  rotate(0 1.94765672550213 1.94765672550213)" opacity="1" d="M0,3.9L3.9,3.9L1.95,0L0,3.9Z " /></g></g></svg>