<svg xmlns="http://www.w3.org/2000/svg" xmlns:xlink="http://www.w3.org/1999/xlink" width="123" height="100" viewBox="0 0 123 100" fill="none"><defs><path id="path_0"
        transform="translate(0 0) rotate(0 61.5 50)"
        d="M0,100L123,100L123,0L0,0L0,100Z" /><path id="path_1"
        transform="translate(0 0.9993000000000016) rotate(0 36.050000000000004 13.0005)"
        d="M21,2C21,0.9 20.1,0 19,0L0,0L0,22C0,24.21 1.79,26 4,26L68.1,26C70.31,26 72.1,24.21 72.1,22L72.1,0L52.89,0C51.78,0 50.89,0.9 50.89,2L50.89,3.18C50.89,5.39 49.1,7.18 46.89,7.18L25,7.18L24.8,7.18C22.68,7.07 21,5.33 21,3.18L21,2Z" /><path id="path_2"
        transform="translate(0 0) rotate(0 15 12)"
        d="M6.33,21.79C8.78,23.18 11.77,24 15,24C23.28,24 30,18.63 30,12C30,5.37 23.28,0 15,0C6.72,0 0,5.37 0,12C0,14.35 0.85,16.54 2.3,18.4C2.52,18.66 2.59,19.02 2.48,19.34L1.14,23.33L5.49,21.72C5.77,21.61 6.07,21.65 6.33,21.79Z" /></defs><g opacity="1" transform="translate(0 0)  rotate(0 61.5 50)"><mask id="mask-0" fill="white"><use xlink:href="#path_0"></use></mask><g mask="url(#mask-0)"></g><g mask="url(#mask-0)"><path id="椭圆形" fill-rule="evenodd" style="fill:#F6F6F8" transform="translate(16.55000000000109 81.5965636359515)  rotate(0 44.5 9)" opacity="1" d="M89,9C89,4.03 69.07,0 44.5,0C19.93,0 0,4.03 0,9C0,13.97 19.93,18 44.5,18C69.07,18 89,13.97 89,9Z " /></g><g mask="url(#mask-0)"><path id="矩形" fill-rule="evenodd" style="fill:#AEB8C3" transform="translate(25.05000000000127 49.7965636359515)  rotate(0 36.050000000000004 8.55)" opacity="1" d="M0,17.1L72.1,17.1L57.88,0L14.22,0L0,17.1Z " /></g><g mask="url(#mask-0)"><path id="矩形" fill-rule="evenodd" style="fill:#F5F5F7" transform="translate(36.10000000000127 21.096563635951494)  rotate(0 25 27)" opacity="1" d="M0,52C0,53.1 0.9,54 2,54L48,54C49.1,54 50,53.1 50,52L50,2C50,0.9 49.1,0 48,0L2,0C0.9,0 0,0.9 0,2Z " /></g><g mask="url(#mask-0)"><path id="矩形" fill-rule="evenodd" style="fill:#DEDEE7" transform="translate(43.05000000000109 27.096563635951494)  rotate(0 18 10)" opacity="1" d="M0,18C0,19.1 0.9,20 2,20L34,20C35.1,20 36,19.1 36,18L36,2C36,0.9 35.1,0 34,0L2,0C0.9,0 0,0.9 0,2Z " /></g><g mask="url(#mask-0)"><path id="矩形备份" fill-rule="evenodd" style="fill:#DEDEE7" transform="translate(43.05000000000109 53.03406363595149)  rotate(0 18 1.5)" opacity="1" d="M0,1.5C0,1.9 0.16,2.28 0.44,2.56C0.72,2.84 1.1,3 1.5,3L34.5,3C34.9,3 35.28,2.84 35.56,2.56C35.84,2.28 36,1.9 36,1.5L36,1.5C36,1.1 35.84,0.72 35.56,0.44C35.28,0.16 34.9,0 34.5,0L1.5,0C1.1,0 0.72,0.16 0.44,0.44C0.16,0.72 0,1.1 0,1.5Z " /></g><g mask="url(#mask-0)"><path id="矩形备份 2" fill-rule="evenodd" style="fill:#DEDEE7" transform="translate(43.05000000000109 61.31075634428544)  rotate(0 18 1.5)" opacity="1" d="M0,1.5C0,1.9 0.16,2.28 0.44,2.56C0.72,2.84 1.1,3 1.5,3L34.5,3C34.9,3 35.28,2.84 35.56,2.56C35.84,2.28 36,1.9 36,1.5L36,1.5C36,1.1 35.84,0.72 35.56,0.44C35.28,0.16 34.9,0 34.5,0L1.5,0C1.1,0 0.72,0.16 0.44,0.44C0.16,0.72 0,1.1 0,1.5Z " /></g><g mask="url(#mask-0)"><g opacity="1" transform="translate(25.05000000000109 65.91427196928544)  rotate(0 36.5 13.5)"><mask id="mask-1" fill="white"><use xlink:href="#path_1"></use></mask><g mask="url(#mask-1)"></g><g mask="url(#mask-1)"><path id="Fill 1" fill-rule="evenodd" style="fill:#DCE0E8" transform="translate(-5 -3.999699999999997)  rotate(0 41.050000000000004 18)" opacity="1" d="M82.1,36L82.1,0L0,0L0,36L82.1,36Z " /></g></g></g><g mask="url(#mask-0)"><g opacity="1" transform="translate(92.55000000000109 0.9034363640485035)  rotate(0 15 12)"><mask id="mask-2" fill="white"><use xlink:href="#path_2"></use></mask><g mask="url(#mask-2)"></g><g mask="url(#mask-2)"><path id="Fill 1" fill-rule="evenodd" style="fill:#DCE0E8" transform="translate(-5 -5)  rotate(0 20 17)" opacity="1" d="M40,34L40,0L0,0L0,34L40,34Z " /></g><g mask="url(#mask-2)"><path id="矩形" fill-rule="evenodd" style="fill:#FFFFFF" transform="translate(-21 8)  rotate(0 2 2)" opacity="1" d="M0,4L4,4L4,0L0,0L0,4Z " /></g></g></g><g mask="url(#mask-0)"><path id="矩形" fill-rule="evenodd" style="fill:#FFFFFF" transform="translate(105.74693768489169 10.042817071900572)  rotate(0 2 2)" opacity="1" d="M0,4L4,4L4,0L0,0L0,4Z " /></g><g mask="url(#mask-0)"><path id="椭圆形" fill-rule="evenodd" style="fill:#FFFFFF" transform="translate(111.37080315090952 10.042817071900853)  rotate(0 2 1.9999999999997204)" opacity="1" d="M2,4C3.1,4 4,3.1 4,2C4,0.9 3.1,0 2,0C0.9,0 0,0.9 0,2C0,3.1 0.9,4 2,4Z " /></g><g mask="url(#mask-0)"><path id="三角形" fill-rule="evenodd" style="fill:#FFFFFF" transform="translate(99.72919684909266 10.042817071900572)  rotate(0 2 2)" opacity="1" d="M0,4L4,4L2,0L0,4Z " /></g></g></svg>