<svg xmlns="http://www.w3.org/2000/svg" xmlns:xlink="http://www.w3.org/1999/xlink" width="30" height="30" viewBox="0 0 30 30" fill="none"><defs><rect id="path_0" x="0" y="0" width="30" height="30" /></defs><g opacity="1" transform="translate(0 0)  rotate(0 15 15)"><mask id="bg-mask-0" fill="white"><use xlink:href="#path_0"></use></mask><g mask="url(#bg-mask-0)" ><path id="路径 1 (轮廓)" fill-rule="evenodd" style="fill:#FFFFFF" transform="translate(6.250000000000002 1.6666666666666667)  rotate(0 8.958333333333334 13.333333333333334)" opacity="0.8" d="M2.04 0.26C1.64 0.43 1.28 0.67 0.98 0.98C0.67 1.28 0.43 1.64 0.26 2.04C0.09 2.45 0 2.88 0 3.33L0 23.33C0 23.79 0.09 24.22 0.26 24.63C0.43 25.03 0.67 25.38 0.98 25.69C1.28 26 1.64 26.24 2.04 26.4Q2.655 26.67 3.33 26.67L14.58 26.67C15.04 26.67 15.47 26.58 15.88 26.4C16.28 26.24 16.63 26 16.94 25.69C17.25 25.38 17.49 25.03 17.65 24.63C17.83 24.22 17.92 23.79 17.92 23.33L17.92 3.33Q17.92 2.655 17.65 2.04C17.49 1.64 17.25 1.28 16.94 0.98C16.63 0.67 16.28 0.43 15.88 0.26C15.47 0.09 15.04 0 14.58 0L3.33 0C2.88 0 2.45 0.09 2.04 0.26ZM14.58 25L3.33 25C3.11 25 2.89 24.96 2.68 24.87C2.48 24.79 2.31 24.67 2.15 24.51C2 24.36 1.88 24.18 1.8 23.98C1.71 23.78 1.67 23.56 1.67 23.33L1.67 3.33C1.67 3.11 1.71 2.89 1.8 2.68C1.88 2.48 2 2.31 2.15 2.15C2.31 2 2.48 1.88 2.68 1.8C2.89 1.71 3.11 1.67 3.33 1.67L14.58 1.67C14.81 1.67 15.03 1.71 15.23 1.8C15.43 1.88 15.61 2 15.76 2.15C15.92 2.31 16.04 2.48 16.12 2.68C16.21 2.89 16.25 3.11 16.25 3.33L16.25 23.33C16.25 23.56 16.21 23.78 16.12 23.98C16.04 24.18 15.92 24.36 15.76 24.51C15.61 24.67 15.43 24.79 15.23 24.87C15.03 24.96 14.81 25 14.58 25Z" /><path id="路径 2 (轮廓)" fill-rule="evenodd" style="fill:#FFFFFF" transform="translate(13.125 5.416666666666667)  rotate(0 2.083333333333333 0.8333333333333334)" opacity="0.8" d="M3.5,1.65C3.55,1.64 3.6,1.62 3.65,1.6C3.7,1.58 3.75,1.56 3.8,1.53C3.84,1.5 3.88,1.46 3.92,1.42C3.96,1.38 4,1.34 4.03,1.3C4.06,1.25 4.08,1.2 4.1,1.15C4.12,1.1 4.14,1.05 4.15,1C4.16,0.94 4.17,0.89 4.17,0.83C4.17,0.78 4.16,0.72 4.15,0.67C4.14,0.62 4.12,0.56 4.1,0.51C4.08,0.46 4.06,0.42 4.03,0.37C4,0.32 3.96,0.28 3.92,0.24C3.88,0.21 3.84,0.17 3.8,0.14C3.75,0.11 3.7,0.08 3.65,0.06C3.6,0.04 3.55,0.03 3.5,0.02C3.44,0.01 3.39,0 3.33,0L0.83,0C0.78,0 0.72,0.01 0.67,0.02C0.62,0.03 0.56,0.04 0.51,0.06C0.46,0.08 0.42,0.11 0.37,0.14C0.32,0.17 0.28,0.21 0.24,0.24C0.21,0.28 0.17,0.32 0.14,0.37C0.11,0.42 0.08,0.46 0.06,0.51C0.04,0.56 0.03,0.62 0.02,0.67C0.01,0.72 0,0.78 0,0.83C0,0.89 0.01,0.94 0.02,1C0.03,1.05 0.04,1.1 0.06,1.15C0.08,1.2 0.11,1.25 0.14,1.3C0.17,1.34 0.21,1.38 0.24,1.42C0.28,1.46 0.32,1.5 0.37,1.53C0.42,1.56 0.46,1.58 0.51,1.6C0.56,1.62 0.62,1.64 0.67,1.65C0.72,1.66 0.78,1.67 0.83,1.67L3.33,1.67C3.39,1.67 3.44,1.66 3.5,1.65Z " /><path id="路径 3 (轮廓)" fill-rule="evenodd" style="fill:#FFFFFF" transform="translate(11.874999999999996 22.916666666666664)  rotate(0 3.3333333333333326 0.8333333333333334)" opacity="0.8" d="M0.51,0.06C0.46,0.08 0.42,0.11 0.37,0.14C0.32,0.17 0.28,0.21 0.24,0.24C0.21,0.28 0.17,0.32 0.14,0.37C0.11,0.42 0.08,0.46 0.06,0.51C0.04,0.56 0.03,0.62 0.02,0.67C0.01,0.72 0,0.78 0,0.83C0,0.89 0.01,0.94 0.02,1C0.03,1.05 0.04,1.1 0.06,1.15C0.08,1.2 0.11,1.25 0.14,1.3C0.17,1.34 0.21,1.38 0.24,1.42C0.28,1.46 0.32,1.5 0.37,1.53C0.42,1.56 0.46,1.58 0.51,1.6C0.56,1.62 0.62,1.64 0.67,1.65C0.72,1.66 0.78,1.67 0.83,1.67L5.83,1.67C5.89,1.67 5.94,1.66 6,1.65C6.05,1.64 6.1,1.62 6.15,1.6C6.2,1.58 6.25,1.56 6.3,1.53C6.34,1.5 6.38,1.46 6.42,1.42C6.46,1.38 6.5,1.34 6.53,1.3C6.56,1.25 6.58,1.2 6.6,1.15C6.62,1.1 6.64,1.05 6.65,1C6.66,0.94 6.67,0.89 6.67,0.83C6.67,0.78 6.66,0.72 6.65,0.67C6.64,0.62 6.62,0.56 6.6,0.51C6.58,0.46 6.56,0.42 6.53,0.37C6.5,0.32 6.46,0.28 6.42,0.24C6.38,0.21 6.34,0.17 6.3,0.14C6.25,0.11 6.2,0.08 6.15,0.06C6.1,0.04 6.05,0.03 6,0.02C5.94,0.01 5.89,0 5.83,0L0.83,0C0.78,0 0.72,0.01 0.67,0.02C0.62,0.03 0.56,0.04 0.51,0.06Z " /></g></g></svg>