<svg xmlns="http://www.w3.org/2000/svg" xmlns:xlink="http://www.w3.org/1999/xlink" width="30" height="30" viewBox="0 0 30 30" fill="none"><defs><rect id="path_0" x="0" y="0" width="30" height="30" /><path id="path_1"
        transform="translate(0 0) rotate(0 15 15)"
        d="M0,30L30,30L30,0L0,0L0,30Z" /></defs><g opacity="0.8" transform="translate(0 0)  rotate(0 15 15)"><mask id="bg-mask-0" fill="white"><use xlink:href="#path_0"></use></mask><g mask="url(#bg-mask-0)" ><mask id="mask-1" fill="white"><use xlink:href="#path_1"></use></mask><g mask="url(#mask-1)"></g><g mask="url(#mask-1)"><path  id="并集" style="stroke:#FFFFFF; stroke-width:2; stroke-opacity:1; stroke-dasharray:0 0" transform="translate(4.875 3.33333333333303)  rotate(0 10.125 11.664999961853027)" d="M2 23.33L18.25 23.33C19.35 23.33 20.25 22.43 20.25 21.33L20.25 12.5C20.25 11.4 19.35 10.5 18.25 10.5L2 10.5C0.9 10.5 0 11.4 0 12.5L0 21.33C0 22.43 0.9 23.33 2 23.33Z M4.5 10.5L4.5 5.83C4.5 2.61 7.02 0 10.13 0C13.23 0 15.75 2.61 15.75 5.83L15.75 10.5 M10.125 15.1667L10.125 18.6667 " /></g></g></g></svg>