<svg xmlns="http://www.w3.org/2000/svg" xmlns:xlink="http://www.w3.org/1999/xlink" width="240" height="275.16154281617855" viewBox="0 0 240 275.16154281617855" fill="none"><defs><rect id="path_0" x="0" y="0" width="240.00000000000003" height="275.1615428161787" /></defs><g opacity="1" transform="translate(0 -1.1368683772161603e-13)  rotate(0 120.00000000000001 137.58077140808936)"><mask id="bg-mask-0" fill="white"><use xlink:href="#path_0"></use></mask><g mask="url(#bg-mask-0)" ><g opacity="1" transform="translate(0 186.29)  rotate(0 120.00000000000001 44.435771408089366)"><g opacity="1" transform="translate(0 0)  rotate(0 119.9577733054127 27.142780032422127)"><path id="路径 4" fill-rule="evenodd" style="fill:#212332" transform="translate(130.22033755085587 0.5892335571353474)  rotate(0 5.045835707005814 2.050713977178834)" opacity="1" d="M0,4.1L10.09,4.1L10.09,0L0,0L0,4.1Z " /><path id="路径 5" fill-rule="evenodd" style="fill:#212332" transform="translate(28.422176174934666 0.30141405156638235)  rotate(0 10.802225818384985 26.929198617569348)" opacity="1" d="M5.4,0L0,0L0,53.86L0.99,53.86C1.55,53.86 2.1,53.73 2.59,53.48C3.1,53.24 3.55,52.91 3.94,52.51L4.44,51.9L21.6,51.9L21.6,41.23L20.58,41.23C20.12,41.25 19.67,41.36 19.25,41.54C18.79,41.76 18.37,42.05 18.01,42.4C17.21,43.26 16.77,44.39 16.78,45.57L16.66,46.41L5.4,46.41L5.4,23.51L5.88,23.39C6.3,23.22 7,22.9 7.97,22.41C9.03,21.87 10.07,21.27 11.06,20.62C12.07,20.04 13.01,19.37 13.89,18.62C14.94,17.68 15.95,16.69 16.89,15.65C18.13,14.43 18.87,13.65 19.12,13.33L19.79,12.66L18.67,11.21C18.36,10.65 18.02,10.12 17.63,9.62C17.09,10.12 16.58,10.65 16.1,11.21C15.27,12.11 14,13.44 12.27,15.24C10.7,16.77 9.23,18.15 7.84,19.37C7.1,20.04 6.28,20.6 5.4,21.05L5.4,0Z " /><path id="路径 6" fill-rule="evenodd" style="fill:#212332" transform="translate(65.8545517463073 36.47672815776493)  rotate(0 9.112360659012454 6.898673774105984)" opacity="1" d="M3.56,13.65C4.23,13.61 4.89,13.53 5.54,13.4L7.34,12.88C8.12,12.6 8.86,12.25 9.57,11.84C10.3,11.46 11,11.03 11.66,10.54C12.35,10.1 13.01,9.62 13.64,9.1C14.28,8.58 14.88,8.02 15.44,7.41C15.85,6.8 16.46,5.97 17.24,4.95C17.6,4.41 17.93,3.84 18.22,3.26C17.66,2.63 17.04,2.07 16.37,1.57C14.98,0.52 14.26,0 14.21,0C13.79,0.45 13.4,0.92 13.04,1.42C12.34,2.56 11.56,3.65 10.71,4.68C9.87,5.73 8.97,6.74 8.01,7.68C7.26,8.41 6.48,9.1 5.67,9.75C5,10.24 4.3,10.68 3.56,11.06C2.9,11.31 2.16,11.58 1.35,11.84C0.92,11.96 0.5,12.14 0.11,12.36C0.03,12.61 -0.01,12.87 0,13.13L0,13.65L1.1,13.8C1.77,13.8 2.57,13.8 3.56,13.65Z " /><path id="路径 7" fill-rule="evenodd" style="fill:#212332" transform="translate(98.00254164623045 37.340186674471795)  rotate(0 6.655826066282197 6.26061322015379)" opacity="1" d="M5.11,7.93C5.79,8.79 6.39,9.7 6.91,10.67C7.56,11.64 7.97,12.23 8.13,12.47C8.29,12.7 9.1,12.18 10.78,11.1C11.67,10.57 12.52,9.97 13.31,9.3C13.31,9.21 12.92,8.6 11.89,7.5C10.87,6.4 10.06,5.38 9.23,4.61C8.33,3.9 7.43,3.26 6.76,2.64C5.93,1.95 5.02,1.34 4.05,0.85C3.39,0.48 2.69,0.19 1.96,0C1.64,0 1.22,0.27 0.74,0.97C0.44,1.33 0.19,1.72 0,2.14C0.34,2.59 0.76,2.99 1.22,3.31C1.96,4.03 2.66,4.8 3.31,5.59C4.05,6.46 4.68,7.25 5.11,7.93Z " /><path id="路径 8" fill-rule="evenodd" style="fill:#212332" transform="translate(69.90416241506095 0)  rotate(0 21.4335588053384 5.2774919687302635)" opacity="1" d="M19.28,0.16C19.28,0.16 19.28,1.6 19.28,4.19L19.28,8.09L0,8.09L0,10.55L42.87,10.55L42.87,8.09L32.88,8.09C26.25,8.09 22.9,8.09 22.86,8.09C22.83,8.09 22.86,7.68 23.28,6.98C23.66,6.28 23.95,5.54 24.14,4.76C24.41,3.79 24.53,2.78 24.52,1.78L24.52,0.03L21.93,0.03C21.04,-0.04 20.16,0.01 19.28,0.16Z " /><path id="路径 9" fill-rule="evenodd" style="fill:#212332" transform="translate(132.75674694368243 34.51595777607637)  rotate(0 2.6730278600593778 8.994410847498575)" opacity="1" d="M0,0L0,17.99L0.86,17.99C1.39,17.99 1.92,17.88 2.39,17.65C2.9,17.4 3.36,17.06 3.74,16.64C4.13,16.14 4.46,15.6 4.73,15.04C4.89,14.59 5.05,14.07 5.22,13.44C5.38,12.81 5.34,10.56 5.34,6.39L5.34,0L0,0Z " /><path id="分组 2" fill-rule="evenodd" style="fill:#212332" transform="translate(146.32024114361948 12.83955126291414)  rotate(0 7.671868726620524 14.633822986271763)" opacity="1" d="M11.24 1.31L4.05 1.31L4.05 0L0 0L0 14.62C0 24.39 0 29.27 0 29.27C0.78 29.04 1.46 28.56 1.92 27.9C2.42 27.22 2.82 26.48 3.11 25.69L11.24 25.69L11.24 25.67L11.31 25.69L11.24 25.69L11.24 27.47C11.21 27.96 11.25 28.46 11.37 28.94C11.37 29.2 11.37 29.29 11.6 29.2C11.87 29.1 12.13 28.97 12.36 28.8C12.68 28.53 12.97 28.21 13.22 27.86C13.5 27.44 13.75 27 13.96 26.53C14.26 25.96 14.5 25.35 14.7 24.73C14.92 24.02 15.08 23.28 15.18 22.54C15.34 21.73 15.38 17.79 15.31 10.69L15.31 0L11.24 0L11.24 1.31Z M11.24 25.67L11.24 25.69L11.31 25.69L11.24 25.67Z M3.95959 4.01148C3.95959 4.01148 3.97959 7.41148 3.97959 13.7215L3.84959 23.0215L11.2396 23.0215L11.2396 4.08148L4.04959 4.08148L3.95959 4.01148Z " /><path id="路径 12" fill-rule="evenodd" style="fill:#212332" transform="translate(130.22033755085587 18.2901331496263)  rotate(0 5.045835707005796 2.1946237299633125)" opacity="1" d="M0 2.09L0 0L10.09 0L10.09 4.39L0 4.39L0 2.09Z" /><path id="路径 13" fill-rule="evenodd" style="fill:#212332" transform="translate(212.32085151440143 41.261727437848876)  rotate(0 5.981249100104931 1.205244179570016)" opacity="1" d="M5.92 0L11.96 0L11.96 2.41L0 2.41L0 0L5.92 0Z" /><path id="分组 3" fill-rule="evenodd" style="fill:#212332" transform="translate(202.72982908970525 7.161571892174895)  rotate(0 15.145097580584126 13.632221144205596)" opacity="1" d="M0 26.01C-0.01 26.3 0.03 26.6 0.13 26.89L0.25 27.26L1.86 26.63C3.01 26.13 4.41 25.41 6.05 24.49C7.68 23.58 9.16 22.89 10.72 21.96C12.06 21.16 13.35 20.28 14.57 19.31L16.55 17.91C16.71 17.91 17.07 18.04 17.65 18.54C18.23 19.04 18.91 19.73 19.93 20.57C20.96 21.42 21.88 22.14 22.7 22.71C23.54 23.36 24.4 23.96 25.3 24.51C26.19 25.11 27.09 25.7 28.25 26.31C28.81 26.66 29.42 26.96 30.04 27.19C30.28 26.08 30.35 24.93 30.24 23.79L30.24 20.37L29.99 20.25C29.59 20.1 28.77 19.76 27.45 19.19C26.25 18.59 25.06 17.99 23.86 17.39L21.14 15.75L19.92 15L21.63 13.2C22.78 11.94 23.77 10.79 24.59 9.78C25.31 8.89 25.98 7.96 26.59 6.99C27.17 6.06 27.67 5.19 28.07 4.45C28.31 4.04 28.5 3.59 28.62 3.12C27.66 3.01 26.69 2.95 25.73 2.94L22.9 2.82L22.52 3.7C22.3 4.09 22.05 4.47 21.79 4.83C20.04 5.12 18.27 5.21 16.5 5.08C14.81 5.16 13.12 5.12 11.44 4.96C11.61 4.48 11.81 4.02 12.06 3.57C12.56 2.64 12.95 1.77 13.3 1.16L13.78 0.03L10.83 0.03C9.81 -0.04 8.77 0.01 7.76 0.16C7.67 0.59 7.59 0.93 7.5 1.23C7.41 1.54 7.34 1.79 7.25 2.04C6.84 3.23 6.39 4.42 5.9 5.64C5.42 6.87 4.88 8.02 4.1 9.69C3.33 11.36 2.43 12.77 1.53 14.37C0.92 15.12 0.46 15.98 0.16 16.9C0.24 17.06 0.38 17.17 0.54 17.21C0.7 17.21 1.44 16.65 2.76 15.41C3.87 14.41 4.94 13.35 5.96 12.24C6.21 11.9 6.82 11.15 7.76 9.96C8.03 9.58 8.36 9.24 8.73 8.95C9.39 9.62 9.99 10.34 10.53 11.11C11.68 12.53 12.51 13.5 12.99 14.01L13.6 14.76L12.13 16.04C10.98 17.14 9.91 18.11 8.93 18.94L5.58 21.58C4.52 22.34 3.28 23.22 1.98 24.24C1.08 24.91 0.52 25.34 0.33 25.5C0.15 25.61 0.03 25.8 0 26.01Z M10.2566 7.54864L11.6266 8.67864C12.4866 9.48864 13.3866 10.2486 14.3266 10.9686C14.8266 11.4286 15.3566 11.8486 15.9266 12.2286C16.0166 12.2286 16.2966 11.9186 16.7866 11.3486C17.4266 10.6986 18.0266 10.0286 18.5866 9.30864C18.9466 8.78864 19.3366 8.28864 19.7566 7.79864C19.8266 7.67864 19.7566 7.67864 19.5066 7.67864C18.0266 7.53864 16.5466 7.49864 15.0566 7.54864L10.2566 7.54864Z " /><path id="分组 4" fill-rule="evenodd" style="fill:#212332" transform="translate(196.16698176434363 0.4992899616450263)  rotate(0 21.874282423240878 26.893135051599614)" opacity="1" d="M0 0L0 53.79C0.93 53.63 1.84 53.34 2.7 52.94C3.84 52.25 4.68 51.15 5.04 49.86C5.13 49.77 10.74 49.74 21.91 49.74L38.66 49.74L38.69 51.77C38.69 53.12 38.8 53.79 39 53.79C39.99 53.48 40.92 53.03 41.77 52.44C42.53 51.8 43.19 51.06 43.75 50.24L43.75 0.04L38.69 0.04L38.69 2.19L5.07 2.19L5.07 0L0 0Z M38.6928 47.3491L38.6928 4.65908L5.07282 4.65908L5.07282 47.3491L21.9428 47.3491L38.6928 47.3491Z " /><path id="路径 18" fill-rule="evenodd" style="fill:#212332" transform="translate(212.32085151440143 33.2927248774083)  rotate(0 5.981249100104931 1.2682046964132263)" opacity="1" d="M11.96 0L11.96 2.54L0 2.54L0 0L11.96 0Z" /><path id="路径 19" fill-rule="evenodd" style="fill:#212332" transform="translate(0 0.42733508525277636)  rotate(0 10.307536043188362 26.884140692050565)" opacity="1" d="M0.86,42.89C1.14,43.81 1.51,44.71 1.96,45.57L3.33,45.08L7.27,43.37C8.9,42.56 10.22,41.86 11.21,41.3C12.2,40.74 13.01,40.11 13.92,39.5C14.33,39.15 14.76,38.82 15.22,38.53C15.22,38.53 15.22,34.84 15.22,34.34L15.22,53.77C18.2,53.77 20.62,51.35 20.62,48.37L20.62,0L15.22,0L15.27,18.76L0.13,18.76L0.13,21.05L15.27,21.05L15.27,34.23L14.89,34.47C14.23,34.85 13.53,35.18 12.81,35.46C11.91,35.85 10.6,36.39 8.87,37.04C7.63,37.52 6.19,38.05 4.55,38.62C3.47,39.02 2.35,39.35 1.22,39.59C0.8,39.7 0.39,39.87 0,40.08C0.15,41.05 0.44,42 0.86,42.89Z " /><path id="分组 5" fill-rule="evenodd" style="fill:#212332" transform="translate(74.74312785243896 14.728366768210432)  rotate(0 15.958365606140662 19.726287714392647)" opacity="1" d="M13.67 39.45L14.41 39.45C14.85 39.47 15.29 39.4 15.7 39.25C16.07 39.06 16.39 38.79 16.64 38.46C17 38.02 17.33 37.54 17.61 37.04C18 36.36 18.29 35.64 18.47 34.88L18.85 33.71L18.98 25.51L18.98 17.41L27.81 17.41L27.81 19.09C27.81 20.13 27.81 20.65 27.99 20.65C28.2 20.62 28.41 20.56 28.6 20.45C29.02 20.2 29.38 19.86 29.66 19.46C30.09 18.91 30.46 18.3 30.76 17.66C31.13 16.93 31.38 16.14 31.5 15.33C31.86 12.57 31.99 9.78 31.88 7L31.88 0L27.81 0L27.81 1.57L5.4 1.57L5.4 0L0 0L0 20.58L0.86 20.58C1.75 20.52 2.58 20.16 3.22 19.55C3.79 18.92 4.21 18.17 4.43 17.34L13.67 17.34L13.67 39.45Z M27.8107 15.0353L27.8107 4.24534L5.40069 4.24534L5.40069 14.1353L5.27069 15.0353L16.4807 15.0353L27.8107 15.0353Z " /><path id="路径 22" fill-rule="evenodd" style="fill:#212332" transform="translate(144.14360613275431 2.4600603433335686)  rotate(0 16.51364413201901 25.005538810386742)" opacity="1" d="M28.57,23.28L28.69,2.7L33.03,2.7L33.03,0L0,0L0,2.7L23.28,2.7L23.28,50.01L24.01,50.01C24.39,50.02 24.76,49.97 25.11,49.86C25.57,49.67 25.96,49.35 26.23,48.93C26.66,48.45 27.04,47.92 27.34,47.35C27.72,46.68 28.01,45.96 28.19,45.21L28.57,44.02L28.57,23.28Z " /></g><g opacity="1" transform="translate(6.507664562785925 68.87990549898035)  rotate(0 116.74616771860705 9.995818658599193)"><path id="分组 6" fill-rule="evenodd" style="fill:#212332" transform="translate(0 0.3810191260104432)  rotate(0 7.407209187956157 9.552408738210175)" opacity="1" d="M12.52 1.27C11.34 0.38 9.88 -0.07 8.4 0.01L0 0.01L0 19.09L8.36 19.09C9.97 19.18 11.55 18.77 12.92 17.93C14.2 16.96 14.91 15.42 14.8 13.82C14.85 12.67 14.46 11.55 13.71 10.68C12.92 9.84 11.86 9.3 10.72 9.15C11.65 8.89 12.48 8.35 13.1 7.6C14.54 5.65 14.29 2.93 12.52 1.27Z M8.05697 8.53607C9.18697 8.59607 10.297 8.27606 11.227 7.63607C11.997 6.95607 12.447 5.96606 12.447 4.93606C12.447 3.90606 11.997 2.92606 11.227 2.23606C10.287 1.60607 9.16697 1.30607 8.03697 1.37607L1.63697 1.37607L1.63697 8.53607L8.05697 8.53607Z M8.25697 17.6766C9.45697 17.7366 10.647 17.4466 11.697 16.8466C12.657 16.1466 13.217 15.0166 13.187 13.8266C13.257 12.6666 12.727 11.5566 11.787 10.8766C10.717 10.1866 9.45697 9.85659 8.18697 9.93659L1.63697 9.93659L1.63697 17.6766L8.25697 17.6766Z " /><path  id="分组 6" style="stroke:#212332; stroke-width:0.2; stroke-opacity:1; stroke-dasharray:0 0" transform="translate(0 0.3810191260104432)  rotate(0 7.407209187956157 9.552408738210175)" d="M12.52 1.27C11.34 0.38 9.88 -0.07 8.4 0.01L0 0.01L0 19.09L8.36 19.09C9.97 19.18 11.55 18.77 12.92 17.93C14.2 16.96 14.91 15.42 14.8 13.82C14.85 12.67 14.46 11.55 13.71 10.68C12.92 9.84 11.86 9.3 10.72 9.15C11.65 8.89 12.48 8.35 13.1 7.6C14.54 5.65 14.29 2.93 12.52 1.27Z M8.05697 8.53607C9.18697 8.59607 10.297 8.27606 11.227 7.63607C11.997 6.95607 12.447 5.96606 12.447 4.93606C12.447 3.90606 11.997 2.92606 11.227 2.23606C10.287 1.60607 9.16697 1.30607 8.03697 1.37607L1.63697 1.37607L1.63697 8.53607L8.05697 8.53607Z M8.25697 17.6766C9.45697 17.7366 10.647 17.4466 11.697 16.8466C12.657 16.1466 13.217 15.0166 13.187 13.8266C13.257 12.6666 12.727 11.5566 11.787 10.8766C10.717 10.1866 9.45697 9.85659 8.18697 9.93659L1.63697 9.93659L1.63697 17.6766L8.25697 17.6766Z " /><path id="路径 26" fill-rule="evenodd" style="fill:#212332" transform="translate(24.590579007047765 0.3896917232761723)  rotate(0 6.916662493204055 9.543015481520799)" opacity="1" d="M13.83,17.65L1.62,17.65L1.62,9.95L12.74,9.95L12.74,8.47L1.62,8.47L1.62,1.46L13.38,1.46L13.38,0L0,0L0,19.09L13.83,19.09L13.83,17.65Z " /><path  id="路径 26" style="stroke:#212332; stroke-width:0.2; stroke-opacity:1; stroke-dasharray:0 0" transform="translate(24.590579007047765 0.3896917232761723)  rotate(0 6.916662493204055 9.543015481520799)" d="M13.83,17.65L1.62,17.65L1.62,9.95L12.74,9.95L12.74,8.47L1.62,8.47L1.62,1.46L13.38,1.46L13.38,0L0,0L0,19.09L13.83,19.09L13.83,17.65Z " /><path id="路径 27" fill-rule="evenodd" style="fill:#212332" transform="translate(48.44362053107517 0.3896917232761723)  rotate(0 0.8094923594127026 9.543015481520799)" opacity="1" d="M0,0L0,19.09L1.62,19.09L1.62,0L0,0Z " /><path  id="路径 27" style="stroke:#212332; stroke-width:0.2; stroke-opacity:1; stroke-dasharray:0 0" transform="translate(48.44362053107517 0.3896917232761723)  rotate(0 0.8094923594127026 9.543015481520799)" d="M0,0L0,19.09L1.62,19.09L1.62,0L0,0Z " /><path id="路径 28" fill-rule="evenodd" style="fill:#212332" transform="translate(59.311283128576555 0.3896917232761723)  rotate(0 5.59236893099457 9.740925271700013)" opacity="1" d="M5.47,19.46C7.16,19.6 8.82,18.94 9.95,17.66C10.85,16.29 11.28,14.66 11.17,13.02L11.17,0L9.51,0L9.51,12.99C9.61,14.29 9.3,15.59 8.61,16.71C7.83,17.6 6.67,18.07 5.48,17.97C2.91,17.97 1.63,16.55 1.63,13.76L1.63,13.08L0.02,13.08L0.02,13.8C-0.1,15.36 0.44,16.9 1.51,18.04C2.57,19.04 4.01,19.56 5.47,19.46Z " /><path  id="路径 28" style="stroke:#212332; stroke-width:0.2; stroke-opacity:1; stroke-dasharray:0 0" transform="translate(59.311283128576555 0.3896917232761723)  rotate(0 5.59236893099457 9.740925271700013)" d="M5.47,19.46C7.16,19.6 8.82,18.94 9.95,17.66C10.85,16.29 11.28,14.66 11.17,13.02L11.17,0L9.51,0L9.51,12.99C9.61,14.29 9.3,15.59 8.61,16.71C7.83,17.6 6.67,18.07 5.48,17.97C2.91,17.97 1.63,16.55 1.63,13.76L1.63,13.08L0.02,13.08L0.02,13.8C-0.1,15.36 0.44,16.9 1.51,18.04C2.57,19.04 4.01,19.56 5.47,19.46Z " /><path id="路径 29" fill-rule="evenodd" style="fill:#212332" transform="translate(81.27303288503403 0.3896917232761723)  rotate(0 0.836475438059793 9.543015481520799)" opacity="1" d="M0,0L0,19.09L1.67,19.09L1.67,0L0,0Z " /><path  id="路径 29" style="stroke:#212332; stroke-width:0.2; stroke-opacity:1; stroke-dasharray:0 0" transform="translate(81.27303288503403 0.3896917232761723)  rotate(0 0.836475438059793 9.543015481520799)" d="M0,0L0,19.09L1.67,19.09L1.67,0L0,0Z " /><path id="路径 30" fill-rule="evenodd" style="fill:#212332" transform="translate(93.86513625367793 0.3896917232761723)  rotate(0 7.501295863890971 9.561004200618855)" opacity="1" d="M13.35,16.55Z M13.35,16.55L1.8,0L0,0L0,19.12L1.53,19.12L1.53,2.45L1.62,2.45L13.2,19.09L15,19.09L15,0L13.35,0L13.35,16.55Z " /><path  id="路径 30" style="stroke:#212332; stroke-width:0.2; stroke-opacity:1; stroke-dasharray:0 0" transform="translate(93.86513625367793 0.3896917232761723)  rotate(0 7.501295863890971 9.561004200618855)" d="M13.35,16.55Z M13.35,16.55L1.8,0L0,0L0,19.12L1.53,19.12L1.53,2.45L1.62,2.45L13.2,19.09L15,19.09L15,0L13.35,0L13.35,16.55Z " /><path id="路径 31" fill-rule="evenodd" style="fill:#212332" transform="translate(118.64974227451575 0)  rotate(0 8.501594221977186 9.995818658599193)" opacity="1" d="M16.88,17.53L16.88,9.89L8.73,9.89L8.73,11.33L15.24,11.33L15.24,16.72C14.44,17.24 13.57,17.64 12.65,17.89C11.59,18.22 10.5,18.38 9.39,18.38C7.18,18.49 5.04,17.6 3.57,15.95C2.21,14.28 1.53,12.17 1.64,10.03C1.54,7.86 2.19,5.73 3.49,3.99C4.81,2.37 6.81,1.48 8.89,1.59C10.49,1.52 12.06,2.01 13.33,2.98C14.41,3.9 15.13,5.18 15.35,6.58L17,6.58C16.77,4.74 15.89,3.05 14.52,1.81C12.93,0.54 10.92,-0.1 8.89,0.01C6.34,-0.1 3.88,1.02 2.29,3.02C0.72,5.01 -0.09,7.5 0.02,10.03C-0.15,12.58 0.66,15.09 2.27,17.07C4.04,19.05 6.61,20.12 9.27,19.98C10.73,19.98 12.19,19.77 13.59,19.33C14.78,18.93 15.9,18.33 16.88,17.53Z " /><path  id="路径 31" style="stroke:#212332; stroke-width:0.2; stroke-opacity:1; stroke-dasharray:0 0" transform="translate(118.64974227451575 0)  rotate(0 8.501594221977186 9.995818658599193)" d="M16.88,17.53L16.88,9.89L8.73,9.89L8.73,11.33L15.24,11.33L15.24,16.72C14.44,17.24 13.57,17.64 12.65,17.89C11.59,18.22 10.5,18.38 9.39,18.38C7.18,18.49 5.04,17.6 3.57,15.95C2.21,14.28 1.53,12.17 1.64,10.03C1.54,7.86 2.19,5.73 3.49,3.99C4.81,2.37 6.81,1.48 8.89,1.59C10.49,1.52 12.06,2.01 13.33,2.98C14.41,3.9 15.13,5.18 15.35,6.58L17,6.58C16.77,4.74 15.89,3.05 14.52,1.81C12.93,0.54 10.92,-0.1 8.89,0.01C6.34,-0.1 3.88,1.02 2.29,3.02C0.72,5.01 -0.09,7.5 0.02,10.03C-0.15,12.58 0.66,15.09 2.27,17.07C4.04,19.05 6.61,20.12 9.27,19.98C10.73,19.98 12.19,19.77 13.59,19.33C14.78,18.93 15.9,18.33 16.88,17.53Z " /><path id="路径 32" fill-rule="evenodd" style="fill:#212332" transform="translate(146.03242163805 0.3896917232761723)  rotate(0 7.528278942538086 9.543015481520799)" opacity="1" d="M0,0L0,19.09L1.6,19.09L1.6,9.95L13.44,9.95L13.44,19.09L15.06,19.09L15.06,0L13.44,0L13.44,8.47L1.6,8.47L1.6,0L0,0Z " /><path  id="路径 32" style="stroke:#212332; stroke-width:0.2; stroke-opacity:1; stroke-dasharray:0 0" transform="translate(146.03242163805 0.3896917232761723)  rotate(0 7.528278942538086 9.543015481520799)" d="M0,0L0,19.09L1.6,19.09L1.6,9.95L13.44,9.95L13.44,19.09L15.06,19.09L15.06,0L13.44,0L13.44,8.47L1.6,8.47L1.6,0L0,0Z " /><path id="路径 33" fill-rule="evenodd" style="fill:#212332" transform="translate(171.66634635278626 0.3896917232761723)  rotate(0 6.916662493204043 9.543015481520799)" opacity="1" d="M1.64,17.65L1.64,9.95L12.75,9.95L12.75,8.47L1.64,8.47L1.64,1.46L13.38,1.46L13.38,0L0,0L0,19.09L13.83,19.09L13.83,17.65L1.64,17.65Z " /><path  id="路径 33" style="stroke:#212332; stroke-width:0.2; stroke-opacity:1; stroke-dasharray:0 0" transform="translate(171.66634635278626 0.3896917232761723)  rotate(0 6.916662493204043 9.543015481520799)" d="M1.64,17.65L1.64,9.95L12.75,9.95L12.75,8.47L1.64,8.47L1.64,1.46L13.38,1.46L13.38,0L0,0L0,19.09L13.83,19.09L13.83,17.65L1.64,17.65Z " /><path id="路径 34" fill-rule="evenodd" style="fill:#212332" transform="translate(193.81045956249835 0.3896917232761723)  rotate(0 7.816098448107014 9.543015481520799)" opacity="1" d="M0,0L0,1.46L7,1.46L7,19.09L8.63,19.09L8.63,1.46L15.63,1.46L15.63,0L0,0Z " /><path  id="路径 34" style="stroke:#212332; stroke-width:0.2; stroke-opacity:1; stroke-dasharray:0 0" transform="translate(193.81045956249835 0.3896917232761723)  rotate(0 7.816098448107014 9.543015481520799)" d="M0,0L0,1.46L7,1.46L7,19.09L8.63,19.09L8.63,1.46L15.63,1.46L15.63,0L0,0Z " /><path id="路径 35" fill-rule="evenodd" style="fill:#212332" transform="translate(218.59570760167287 0.3896917232761723)  rotate(0 7.448313917770622 9.722046750146719)" opacity="1" d="M1.59,11.71L1.59,0L0.02,0L0.02,11.67C-0.13,13.74 0.52,15.79 1.82,17.4C5.08,20.13 9.82,20.13 13.08,17.4C14.37,15.79 15.01,13.76 14.88,11.71L14.88,0L13.24,0L13.24,11.71C13.36,13.36 12.89,15 11.91,16.33C9.34,18.58 5.49,18.58 2.92,16.33C1.93,15 1.46,13.36 1.59,11.71Z " /><path  id="路径 35" style="stroke:#212332; stroke-width:0.2; stroke-opacity:1; stroke-dasharray:0 0" transform="translate(218.59570760167287 0.3896917232761723)  rotate(0 7.448313917770622 9.722046750146719)" d="M1.59,11.71L1.59,0L0.02,0L0.02,11.67C-0.13,13.74 0.52,15.79 1.82,17.4C5.08,20.13 9.82,20.13 13.08,17.4C14.37,15.79 15.01,13.76 14.88,11.71L14.88,0L13.24,0L13.24,11.71C13.36,13.36 12.89,15 11.91,16.33C9.34,18.58 5.49,18.58 2.92,16.33C1.93,15 1.46,13.36 1.59,11.71Z " /></g></g><g opacity="1" transform="translate(37.24262363550328 0)  rotate(0 82.75737636449666 77.33275567662888)"><path id="路径 1" fill-rule="evenodd" style="fill:#CDCCCC" transform="translate(0 57.02311008552351)  rotate(0 82.75737636449666 12.921171278558585)" opacity="1" d="M0,0C0,0 3.15,25.84 6.39,25.84L159.12,25.84C162.36,25.84 165.51,0 165.51,0L83.27,0L0,0Z " /><path id="分组 1" fill-rule="evenodd" style="fill:#B52D29" transform="translate(12.590579754406463 0)  rotate(0 70.26612133598616 77.33275567662888)" opacity="1" d="M116.263 62.2093L24.2429 62.2093L24.2429 78.3593L116.263 78.3593L116.263 62.2093Z M140.4 2.1C142.4 -5 116.27 7.67 116.27 14.33L116.27 45.62L78.52 45.62L78.52 22.31C78.52 15.95 61.93 15.95 61.93 22.31L61.93 45.62L24.24 45.62L24.24 14.33C24.24 7.67 -1.89 -5 0.11 2.1C10.42 38.78 8.01 115.34 0.11 152.7C-0.57 155.97 24.15 151.35 24.15 146.54L24.15 94.95L61.93 94.95C61.93 99.4 62.55 124.83 62.55 134.02C62.55 138.65 79.17 138.65 79.17 134.02C79.17 124.83 78.64 99.4 78.55 94.95L116.27 94.95L116.27 146.54C116.27 151.35 141.2 156.94 140.52 153.7C132.71 116.34 130.09 38.78 140.52 2.1 " /><path id="分组 1" fill-rule="evenodd" style="fill:#C9322C" transform="translate(12.590579754406463 0)  rotate(0 70.26612133598616 77.33275567662888)" opacity="1" d="M116.263 62.2093L24.2429 62.2093L24.2429 78.3593L116.263 78.3593L116.263 62.2093Z M140.4 2.1C142.4 -5 116.27 7.67 116.27 14.33L116.27 45.62L78.52 45.62L78.52 22.31C78.52 15.95 61.93 15.95 61.93 22.31L61.93 45.62L24.24 45.62L24.24 14.33C24.24 7.67 -1.89 -5 0.11 2.1C10.42 38.78 8.01 115.34 0.11 152.7C-0.57 155.97 24.15 151.35 24.15 146.54L24.15 94.95L61.93 94.95C61.93 99.4 62.55 124.83 62.55 134.02C62.55 138.65 79.17 138.65 79.17 134.02C79.17 124.83 78.64 99.4 78.55 94.95L116.27 94.95L116.27 146.54C116.27 151.35 141.2 156.94 140.52 153.7C132.71 116.34 130.09 38.78 140.52 2.1 " /></g></g></g></svg>